<?xml version="1.0" encoding="UTF-8"?>
<svg width="7px" height="8px" viewBox="0 0 7 8" version="1.1" xmlns="http://www.w3.org/2000/svg" xmlns:xlink="http://www.w3.org/1999/xlink">
    <!-- Generator: Sketch 52.3 (67297) - http://www.bohemiancoding.com/sketch -->
    <title>Fill 1</title>
    <desc>Created with Sketch.</desc>
    <g id="Symbols" stroke="none" stroke-width="1" fill="none" fill-rule="evenodd">
        <g id="Desktop-Search" transform="translate(-226.000000, -482.000000)" fill="#FF5050">
            <g id="Page-1-Copy" transform="translate(226.000000, 482.000000)">
                <path d="M4.38501002,0.932941156 L4.27305708,0.373176463 C4.23107473,0.158599997 4.03982179,0 3.81544945,0 L0.466657166,0 C0.210098348,0 0.000186588231,0.20991176 0.000186588231,0.466470578 L0.000186588231,7.46352925 C0.000186588231,7.72008807 0.210098348,7.92999983 0.466657166,7.92999983 C0.722749514,7.92999983 0.933127745,7.72008807 0.933127745,7.46352925 L0.933127745,4.66470578 L3.54536298,4.66470578 L3.65684945,5.22447048 C3.69929827,5.44371165 3.89008474,5.59764694 4.11445709,5.59764694 L6.53077468,5.59764694 C6.78686703,5.59764694 6.99724526,5.38773518 6.99724526,5.13117636 L6.99724526,1.39941173 C6.99724526,1.14285292 6.78686703,0.932941156 6.53077468,0.932941156 L4.38501002,0.932941156 Z" id="Fill-1"></path>
            </g>
        </g>
    </g>
</svg>